<svg width="211" height="158" viewBox="0 0 211 158" fill="none" xmlns="http://www.w3.org/2000/svg">
<g filter="url(#filter0_d_26_906)">
<circle cx="79" cy="79" r="30" fill="#0075FF"/>
</g>
<path d="M72.768 68.578C73.656 68.3807 74.5687 68.2327 75.506 68.134C76.468 68.0107 77.4423 67.9367 78.429 67.912C77.4177 67.9367 76.4187 68.0107 75.432 68.134C74.47 68.2573 73.582 68.4053 72.768 68.578ZM85.311 68.541C84.4477 68.3683 83.572 68.2327 82.684 68.134C81.8207 68.0107 80.9697 67.9367 80.131 67.912C81.0437 67.9367 81.9317 67.9983 82.795 68.097C83.683 68.1957 84.5217 68.3437 85.311 68.541ZM72.028 91.703C71.4113 91.6537 70.8193 91.3577 70.252 90.815C69.6847 90.2477 69.401 89.5447 69.401 88.706C69.401 87.892 69.66 86.9423 70.178 85.857C70.696 84.7717 71.3867 83.6123 72.25 82.379C73.1133 81.121 74.0507 79.8753 75.062 78.642C76.098 77.384 77.134 76.2 78.17 75.09C79.2307 73.9553 80.205 72.9563 81.093 72.093C81.981 71.2297 82.6963 70.5637 83.239 70.095C83.1403 70.1937 82.9183 70.3663 82.573 70.613C82.2277 70.8597 81.8823 71.131 81.537 71.427C81.6357 71.3037 81.87 71.0817 82.24 70.761C82.6347 70.4403 82.9553 70.1813 83.202 69.984C81.87 69.984 80.4147 70.0333 78.836 70.132C77.282 70.206 75.765 70.4157 74.285 70.761C74.0383 70.8103 73.619 70.9337 73.027 71.131C72.435 71.3283 71.7567 71.5997 70.992 71.945C70.252 72.2657 69.512 72.6357 68.772 73.055C68.032 73.4497 67.3907 73.8937 66.848 74.387C66.33 74.8803 65.997 75.386 65.849 75.904C65.9477 76.1013 65.997 76.2863 65.997 76.459C65.997 76.8043 65.8367 76.977 65.516 76.977C65.22 76.977 64.887 76.8043 64.517 76.459C64.1717 76.089 63.999 75.5957 63.999 74.979C63.999 74.6583 64.0483 74.35 64.147 74.054C64.4183 73.24 64.8623 72.537 65.479 71.945L65.405 71.982C65.3063 72.0313 65.2693 72.0437 65.294 72.019C65.3433 71.9943 65.4173 71.945 65.516 71.871L65.479 71.945C66.589 71.3283 67.7977 70.724 69.105 70.132C70.437 69.54 71.9293 69.0467 73.582 68.652C75.2347 68.2573 77.0847 68.06 79.132 68.06C80.0693 68.06 81.056 68.1093 82.092 68.208C83.128 68.3067 84.2133 68.467 85.348 68.689C85.4713 68.7137 85.6317 68.7383 85.829 68.763C86.051 68.7877 86.199 68.8 86.273 68.8H86.31C86.31 68.7753 86.0263 68.7013 85.459 68.578C85.385 68.578 85.3357 68.5657 85.311 68.541C85.6317 68.3437 85.8907 68.208 86.088 68.134C86.2853 68.06 86.4703 68.023 86.643 68.023C86.8157 68.023 87.1117 68.0477 87.531 68.097C87.975 68.1463 88.3943 68.245 88.789 68.393C89.1837 68.541 89.3933 68.763 89.418 69.059C90.602 69.1577 91.749 69.355 92.859 69.651C93.9937 69.947 94.8323 70.2553 95.375 70.576C95.819 70.8227 96.041 71.0817 96.041 71.353C96.041 71.649 95.8067 71.76 95.338 71.686C94.894 71.612 94.3143 71.5257 93.599 71.427C92.9083 71.3283 92.1683 71.2297 91.379 71.131C90.6143 71.0323 89.8743 70.9583 89.159 70.909C88.4683 70.8597 87.901 70.8597 87.457 70.909C86.4703 71.6243 85.311 72.5123 83.979 73.573C82.647 74.6337 81.278 75.8053 79.872 77.088C78.4907 78.3707 77.208 79.7273 76.024 81.158C74.8647 82.5887 73.9273 84.0317 73.212 85.487C72.4967 86.9423 72.1637 88.3607 72.213 89.742C72.2377 90.1367 72.398 90.482 72.694 90.778C72.99 91.0493 73.138 91.259 73.138 91.407C73.138 91.5057 73.0517 91.5797 72.879 91.629C72.731 91.6783 72.4473 91.703 72.028 91.703ZM70.77 69.133C70.622 69.1577 70.6467 69.1453 70.844 69.096C71.066 69.0467 71.3127 68.985 71.584 68.911L72.435 68.652C72.3857 68.652 72.4103 68.652 72.509 68.652C72.6323 68.6273 72.7187 68.6027 72.768 68.578C72.62 68.6273 72.5213 68.652 72.472 68.652H72.435C72.5337 68.6273 72.5337 68.6273 72.435 68.652C72.361 68.6767 72.25 68.7137 72.102 68.763C71.954 68.7877 71.7813 68.837 71.584 68.911L70.77 69.133ZM65.516 71.871C66.2067 71.2297 67.0207 70.687 67.958 70.243C68.8953 69.799 69.8327 69.429 70.77 69.133C69.882 69.429 69.031 69.799 68.217 70.243C67.4277 70.6623 66.6753 71.1187 65.96 71.612L65.516 71.871Z" fill="white"/>
<path d="M137.24 69.79C138.08 69.6033 138.943 69.4633 139.83 69.37C140.74 69.2533 141.662 69.1833 142.595 69.16C141.638 69.1833 140.693 69.2533 139.76 69.37C138.85 69.4867 138.01 69.6267 137.24 69.79ZM149.105 69.755C148.288 69.5917 147.46 69.4633 146.62 69.37C145.803 69.2533 144.998 69.1833 144.205 69.16C145.068 69.1833 145.908 69.2417 146.725 69.335C147.565 69.4283 148.358 69.5683 149.105 69.755ZM136.54 91.665C135.957 91.6183 135.397 91.3383 134.86 90.825C134.323 90.2883 134.055 89.6233 134.055 88.83C134.055 88.06 134.3 87.1617 134.79 86.135C135.28 85.1083 135.933 84.0117 136.75 82.845C137.567 81.655 138.453 80.4767 139.41 79.31C140.39 78.12 141.37 77 142.35 75.95C143.353 74.8767 144.275 73.9317 145.115 73.115C145.955 72.2983 146.632 71.6683 147.145 71.225C147.052 71.3183 146.842 71.4817 146.515 71.715C146.188 71.9483 145.862 72.205 145.535 72.485C145.628 72.3683 145.85 72.1583 146.2 71.855C146.573 71.5517 146.877 71.3067 147.11 71.12C145.85 71.12 144.473 71.1667 142.98 71.26C141.51 71.33 140.075 71.5283 138.675 71.855C138.442 71.9017 138.045 72.0183 137.485 72.205C136.925 72.3917 136.283 72.6483 135.56 72.975C134.86 73.2783 134.16 73.6283 133.46 74.025C132.76 74.3983 132.153 74.8183 131.64 75.285C131.15 75.7517 130.835 76.23 130.695 76.72C130.788 76.9067 130.835 77.0817 130.835 77.245C130.835 77.5717 130.683 77.735 130.38 77.735C130.1 77.735 129.785 77.5717 129.435 77.245C129.108 76.895 128.945 76.4283 128.945 75.845C128.945 75.5417 128.992 75.25 129.085 74.97C129.342 74.2 129.762 73.535 130.345 72.975L130.275 73.01C130.182 73.0567 130.147 73.0683 130.17 73.045C130.217 73.0217 130.287 72.975 130.38 72.905L130.345 72.975C131.395 72.3917 132.538 71.82 133.775 71.26C135.035 70.7 136.447 70.2333 138.01 69.86C139.573 69.4867 141.323 69.3 143.26 69.3C144.147 69.3 145.08 69.3467 146.06 69.44C147.04 69.5333 148.067 69.685 149.14 69.895C149.257 69.9183 149.408 69.9417 149.595 69.965C149.805 69.9883 149.945 70 150.015 70H150.05C150.05 69.9767 149.782 69.9067 149.245 69.79C149.175 69.79 149.128 69.7783 149.105 69.755C149.408 69.5683 149.653 69.44 149.84 69.37C150.027 69.3 150.202 69.265 150.365 69.265C150.528 69.265 150.808 69.2883 151.205 69.335C151.625 69.3817 152.022 69.475 152.395 69.615C152.768 69.755 152.967 69.965 152.99 70.245C154.11 70.3383 155.195 70.525 156.245 70.805C157.318 71.085 158.112 71.3767 158.625 71.68C159.045 71.9133 159.255 72.1583 159.255 72.415C159.255 72.695 159.033 72.8 158.59 72.73C158.17 72.66 157.622 72.5783 156.945 72.485C156.292 72.3917 155.592 72.2983 154.845 72.205C154.122 72.1117 153.422 72.0417 152.745 71.995C152.092 71.9483 151.555 71.9483 151.135 71.995C150.202 72.6717 149.105 73.5117 147.845 74.515C146.585 75.5183 145.29 76.6267 143.96 77.84C142.653 79.0533 141.44 80.3367 140.32 81.69C139.223 83.0433 138.337 84.4083 137.66 85.785C136.983 87.1617 136.668 88.5033 136.715 89.81C136.738 90.1833 136.89 90.51 137.17 90.79C137.45 91.0467 137.59 91.245 137.59 91.385C137.59 91.4783 137.508 91.5483 137.345 91.595C137.205 91.6417 136.937 91.665 136.54 91.665ZM135.35 70.315C135.21 70.3383 135.233 70.3267 135.42 70.28C135.63 70.2333 135.863 70.175 136.12 70.105L136.925 69.86C136.878 69.86 136.902 69.86 136.995 69.86C137.112 69.8367 137.193 69.8133 137.24 69.79C137.1 69.8367 137.007 69.86 136.96 69.86H136.925C137.018 69.8367 137.018 69.8367 136.925 69.86C136.855 69.8833 136.75 69.9183 136.61 69.965C136.47 69.9883 136.307 70.035 136.12 70.105L135.35 70.315ZM130.38 72.905C131.033 72.2983 131.803 71.785 132.69 71.365C133.577 70.945 134.463 70.595 135.35 70.315C134.51 70.595 133.705 70.945 132.935 71.365C132.188 71.7617 131.477 72.1933 130.8 72.66L130.38 72.905ZM147.338 91.595C147.198 91.595 146.976 91.4317 146.673 91.105C146.393 90.8017 146.101 90.4633 145.798 90.09C145.518 89.6933 145.308 89.4017 145.168 89.215C145.378 88.305 145.74 87.36 146.253 86.38C146.79 85.3767 147.408 84.3967 148.108 83.44C148.808 82.4833 149.508 81.5967 150.208 80.78C150.931 79.9633 151.561 79.275 152.098 78.715C151.701 79.0183 151.281 79.415 150.838 79.905C150.395 80.3717 150.091 80.6867 149.928 80.85C149.648 81.13 149.368 81.41 149.088 81.69C148.808 81.9467 148.551 82.2033 148.318 82.46C149.018 81.5967 149.706 80.8033 150.383 80.08C151.083 79.3567 151.585 78.8783 151.888 78.645C151.958 78.575 152.051 78.4933 152.168 78.4C152.308 78.3067 152.46 78.2483 152.623 78.225L152.903 77.91C153.533 77.9333 154.21 78.1317 154.933 78.505C155.656 78.855 156.275 79.3217 156.788 79.905C157.325 80.465 157.605 81.1067 157.628 81.83C157.628 81.9233 157.581 82.0167 157.488 82.11C157.395 82.18 157.325 82.1333 157.278 81.97C157.115 81.62 156.928 81.305 156.718 81.025C156.508 80.745 156.275 80.5233 156.018 80.36C155.785 80.22 155.54 80.15 155.283 80.15C155.003 80.15 154.746 80.2433 154.513 80.43C154.046 80.78 153.486 81.305 152.833 82.005C152.203 82.6817 151.561 83.4167 150.908 84.21C150.278 85.0033 149.706 85.7733 149.193 86.52C148.703 87.2667 148.365 87.885 148.178 88.375C148.318 88.2117 148.563 87.9783 148.913 87.675C149.263 87.3717 149.636 87.0683 150.033 86.765C150.43 86.4383 150.768 86.17 151.048 85.96C151.141 85.89 151.34 85.75 151.643 85.54C151.946 85.33 152.261 85.1083 152.588 84.875C152.938 84.6417 153.218 84.4667 153.428 84.35C153.428 84.3967 153.288 84.525 153.008 84.735C152.751 84.945 152.436 85.1783 152.063 85.435C151.69 85.6917 151.34 85.925 151.013 86.135C150.71 86.345 150.523 86.485 150.453 86.555C150.196 86.7883 149.893 87.0567 149.543 87.36C149.216 87.6633 148.913 87.9433 148.633 88.2C148.353 88.4567 148.166 88.6433 148.073 88.76C148.026 88.8533 148.015 88.9117 148.038 88.935C148.061 88.9583 148.108 88.9233 148.178 88.83C148.388 88.5267 148.703 88.2 149.123 87.85C149.543 87.5 149.998 87.15 150.488 86.8C151.001 86.4267 151.456 86.0883 151.853 85.785C152.32 85.435 152.74 85.1317 153.113 84.875C153.51 84.595 153.86 84.3383 154.163 84.105C154.186 83.615 154.361 83.2767 154.688 83.09C155.038 82.9033 155.306 82.845 155.493 82.915C155.633 82.9617 155.843 83.055 156.123 83.195C156.426 83.3117 156.695 83.4633 156.928 83.65C157.161 83.8133 157.231 84 157.138 84.21C156.975 84.5833 156.846 85.1667 156.753 85.96C156.683 86.73 156.648 87.4417 156.648 88.095C156.648 89.0283 156.94 89.495 157.523 89.495C157.826 89.495 158.235 89.3317 158.748 89.005C158.935 88.8883 159.075 88.83 159.168 88.83C159.238 88.83 159.273 88.865 159.273 88.935C159.273 89.0283 159.215 89.1683 159.098 89.355C158.981 89.5183 158.9 89.6233 158.853 89.67C158.573 89.9733 158.235 90.2533 157.838 90.51C157.465 90.7433 157.08 90.86 156.683 90.86C156.52 90.86 156.356 90.8367 156.193 90.79C156.03 90.7433 155.866 90.6617 155.703 90.545C155.12 90.1483 154.7 89.5417 154.443 88.725C154.21 87.9083 154.093 87.2083 154.093 86.625C154.093 86.485 154.093 86.3567 154.093 86.24C154.116 86.1233 154.14 86.0183 154.163 85.925C153.906 86.135 153.475 86.4967 152.868 87.01C152.285 87.5 151.631 88.06 150.908 88.69C150.185 89.2967 149.496 89.8683 148.843 90.405C148.19 90.9417 147.688 91.3383 147.338 91.595ZM165.301 92.225C164.858 92.225 164.298 92.0617 163.621 91.735C162.944 91.4083 162.303 91.0117 161.696 90.545C161.113 90.0783 160.704 89.6583 160.471 89.285C160.191 88.795 160.051 88.3867 160.051 88.06C160.051 87.8733 160.109 87.78 160.226 87.78C160.436 87.78 160.739 88.025 161.136 88.515C161.299 88.725 161.603 88.935 162.046 89.145C162.513 89.3317 163.026 89.495 163.586 89.635C164.169 89.775 164.706 89.845 165.196 89.845C165.313 89.845 165.406 89.845 165.476 89.845C165.569 89.845 165.663 89.8333 165.756 89.81C165.733 89.2733 165.499 88.725 165.056 88.165C164.613 87.5817 164.099 86.975 163.516 86.345C162.956 85.715 162.466 85.0733 162.046 84.42C161.743 83.9533 161.591 83.4633 161.591 82.95C161.591 82.25 161.871 81.585 162.431 80.955C162.991 80.325 163.679 79.7533 164.496 79.24C164.706 79.1233 164.916 79.0067 165.126 78.89C165.336 78.7733 165.546 78.6683 165.756 78.575C165.383 78.6917 165.009 78.8317 164.636 78.995C164.263 79.1583 163.913 79.3333 163.586 79.52H163.551C163.528 79.52 163.551 79.4967 163.621 79.45C163.691 79.38 163.749 79.3333 163.796 79.31C164.729 78.7033 165.709 78.2833 166.736 78.05C167.786 77.8167 168.708 77.7 169.501 77.7C169.688 77.7 169.863 77.7117 170.026 77.735C170.189 77.735 170.341 77.7467 170.481 77.77C170.551 77.7933 170.598 77.8283 170.621 77.875C170.644 77.9217 170.598 77.945 170.481 77.945L171.076 78.155C171.286 78.2483 171.473 78.5517 171.636 79.065C171.823 79.555 171.951 79.9983 172.021 80.395C172.044 80.3717 172.056 80.3483 172.056 80.325C172.103 80.2083 172.126 80.115 172.126 80.045C172.126 79.9517 172.138 79.8583 172.161 79.765C172.184 79.7183 172.243 79.8 172.336 80.01C172.429 80.1967 172.511 80.4183 172.581 80.675C172.674 80.9083 172.721 81.1067 172.721 81.27C172.698 81.69 172.546 82.145 172.266 82.635C171.986 83.125 171.683 83.51 171.356 83.79C171.053 84.07 170.796 84.1283 170.586 83.965C170.843 83.685 171.041 83.3583 171.181 82.985C170.668 83.7083 170.049 84.3383 169.326 84.875C168.626 85.3883 168.066 85.645 167.646 85.645C167.436 85.645 167.331 85.5867 167.331 85.47C167.331 85.4 167.378 85.3067 167.471 85.19C167.588 85.0733 167.669 85.0033 167.716 84.98C167.949 84.84 168.241 84.6067 168.591 84.28C168.941 83.93 169.291 83.5333 169.641 83.09C169.991 82.6467 170.294 82.215 170.551 81.795C170.831 81.375 171.018 81.025 171.111 80.745C171.111 80.3483 170.831 80.15 170.271 80.15C169.944 80.15 169.559 80.2083 169.116 80.325C168.696 80.4417 168.264 80.5817 167.821 80.745C166.958 81.0483 166.164 81.4567 165.441 81.97C164.718 82.4833 164.356 83.0433 164.356 83.65C164.356 83.8833 164.426 84.1283 164.566 84.385C165.009 85.0617 165.464 85.7617 165.931 86.485C166.398 87.2083 166.794 87.8733 167.121 88.48C167.448 89.0633 167.611 89.5183 167.611 89.845C167.611 89.985 167.506 90.1833 167.296 90.44C167.109 90.6967 166.876 90.9533 166.596 91.21C166.339 91.49 166.083 91.7233 165.826 91.91C165.593 92.12 165.418 92.225 165.301 92.225ZM180.064 93.765C179.504 93.765 178.979 93.4267 178.489 92.75C178.046 92.1433 177.661 91.35 177.334 90.37C177.007 89.39 176.844 88.3983 176.844 87.395C176.844 87.2083 176.844 87.0333 176.844 86.87C176.867 86.6833 176.891 86.5083 176.914 86.345C176.984 85.925 177.206 85.6333 177.579 85.47C177.976 85.2833 178.256 85.225 178.419 85.295C178.466 85.295 178.524 85.3067 178.594 85.33C178.664 85.3533 178.746 85.3883 178.839 85.435C179.376 85.1783 180.017 84.7 180.764 84C181.511 83.3 182.141 82.4833 182.654 81.55C182.957 81.0133 183.109 80.6517 183.109 80.465C183.109 80.255 182.957 80.2433 182.654 80.43C182.374 80.6167 182.059 80.8617 181.709 81.165C181.382 81.445 181.126 81.6667 180.939 81.83C179.516 83.1133 178.139 84.2917 176.809 85.365C175.479 86.4383 174.347 87.605 173.414 88.865C173.087 89.3083 172.807 89.705 172.574 90.055C172.341 90.3817 172.201 90.6967 172.154 91C171.594 90.6033 171.221 90.23 171.034 89.88C170.847 89.53 170.754 89.1917 170.754 88.865C170.754 88.6783 170.777 88.5033 170.824 88.34C170.847 88.1767 170.882 88.0133 170.929 87.85C171.069 87.36 171.431 86.625 172.014 85.645C172.621 84.665 173.356 83.545 174.219 82.285C175.082 81.025 176.004 79.7183 176.984 78.365C177.964 77.0117 178.909 75.7167 179.819 74.48C180.729 73.2433 181.534 72.1583 182.234 71.225C182.934 70.2917 183.424 69.6267 183.704 69.23C183.587 69.3 183.494 69.3583 183.424 69.405C183.377 69.4283 183.272 69.5333 183.109 69.72C182.969 69.8833 182.701 70.21 182.304 70.7C181.721 71.4467 181.406 71.82 181.359 71.82C181.336 71.82 181.406 71.6917 181.569 71.435C181.732 71.1783 181.942 70.8633 182.199 70.49C182.456 70.0933 182.712 69.72 182.969 69.37C183.226 69.02 183.424 68.7633 183.564 68.6C183.704 68.46 183.809 68.39 183.879 68.39C183.926 68.39 183.984 68.4133 184.054 68.46C184.147 68.4833 184.276 68.5183 184.439 68.565C184.626 68.6117 184.882 68.775 185.209 69.055C185.559 69.335 185.851 69.65 186.084 70C186.341 70.3267 186.422 70.6183 186.329 70.875C186.049 71.155 185.606 71.645 184.999 72.345C184.392 73.045 183.669 73.8733 182.829 74.83C182.012 75.7867 181.149 76.8133 180.239 77.91C179.329 78.9833 178.431 80.0567 177.544 81.13C176.657 82.18 175.841 83.16 175.094 84.07C174.347 84.9567 173.741 85.7033 173.274 86.31C172.807 86.9167 172.539 87.29 172.469 87.43C172.702 87.3133 173.111 86.975 173.694 86.415C174.301 85.855 175.024 85.1783 175.864 84.385C176.704 83.5683 177.602 82.7283 178.559 81.865C179.516 80.9783 180.472 80.1617 181.429 79.415C182.409 78.645 183.331 78.0383 184.194 77.595C184.521 77.595 184.882 77.735 185.279 78.015C185.699 78.295 185.944 78.575 186.014 78.855C186.411 79.0417 186.609 79.345 186.609 79.765C186.609 80.185 186.422 80.64 186.049 81.13C185.699 81.62 185.349 82.0283 184.999 82.355C184.836 82.5183 184.661 82.67 184.474 82.81C184.311 82.95 184.136 83.09 183.949 83.23C184.346 82.8333 184.719 82.39 185.069 81.9C185.442 81.41 185.804 80.8617 186.154 80.255C186.201 80.1383 186.212 80.01 186.189 79.87C186.189 79.7067 186.142 79.73 186.049 79.94C185.676 80.78 185.197 81.55 184.614 82.25C184.031 82.95 183.412 83.58 182.759 84.14C182.946 84.0233 183.132 83.895 183.319 83.755C183.529 83.5917 183.727 83.4283 183.914 83.265C183.401 83.8483 182.876 84.3383 182.339 84.735C181.802 85.1083 181.301 85.4117 180.834 85.645C180.787 85.6683 180.741 85.6917 180.694 85.715C180.647 85.7383 180.612 85.75 180.589 85.75L181.044 85.435C181.627 85.0383 182.199 84.6067 182.759 84.14C182.059 84.6067 181.429 84.98 180.869 85.26C180.309 85.54 179.866 85.7383 179.539 85.855C179.796 86.0183 179.901 86.205 179.854 86.415C179.831 86.5783 179.807 86.9517 179.784 87.535C179.761 88.095 179.749 88.69 179.749 89.32C179.749 89.67 179.749 90.0083 179.749 90.335C179.749 90.6383 179.761 90.9183 179.784 91.175C179.831 92.1317 180.099 92.61 180.589 92.61C180.822 92.61 181.161 92.4467 181.604 92.12C181.744 92.0033 181.861 91.945 181.954 91.945C182.001 91.945 182.024 91.98 182.024 92.05C182.024 92.4233 181.814 92.7967 181.394 93.17C180.974 93.5667 180.531 93.765 180.064 93.765ZM187.776 91.245C187.263 91.245 186.715 91.0467 186.131 90.65C185.548 90.2533 185.046 89.7867 184.626 89.25C184.23 88.7133 184.031 88.2233 184.031 87.78C184.031 86.94 184.276 86.0417 184.766 85.085C185.28 84.105 185.933 83.1483 186.726 82.215C187.543 81.2817 188.406 80.4533 189.316 79.73C190.226 79.0067 191.101 78.4817 191.941 78.155C192.175 78.0617 192.385 78.0033 192.571 77.98C192.758 77.9567 192.898 77.945 192.991 77.945C193.271 77.945 193.598 78.1433 193.971 78.54C194.345 78.9133 194.683 79.3217 194.986 79.765C195.29 80.2083 195.465 80.5467 195.511 80.78C195.511 81.1533 195.29 81.6083 194.846 82.145C194.426 82.6583 193.866 83.195 193.166 83.755C192.466 84.2917 191.708 84.7933 190.891 85.26C190.098 85.7267 189.328 86.1 188.581 86.38C187.835 86.6367 187.193 86.7533 186.656 86.73C186.283 87.4067 186.096 87.9667 186.096 88.41C186.096 88.6433 186.155 88.8533 186.271 89.04C186.388 89.2033 186.621 89.2733 186.971 89.25C187.531 89.0633 188.231 88.725 189.071 88.235C189.911 87.745 190.81 87.1967 191.766 86.59C192.746 85.96 193.703 85.3533 194.636 84.77C195.593 84.1633 196.445 83.6617 197.191 83.265C197.588 83.055 197.88 82.95 198.066 82.95C198.23 82.95 198.311 83.0083 198.311 83.125C198.311 83.2183 198.206 83.37 197.996 83.58C197.81 83.79 197.518 84 197.121 84.21C196.911 84.3267 196.678 84.4667 196.421 84.63C196.165 84.7933 195.896 84.98 195.616 85.19C194.963 85.6567 194.263 86.1933 193.516 86.8C192.793 87.4067 192.058 88.0133 191.311 88.62C190.588 89.2267 189.911 89.7633 189.281 90.23C188.675 90.6967 188.173 91.035 187.776 91.245ZM187.391 85.575C188.091 85.3183 188.838 84.9567 189.631 84.49C190.425 84.0233 191.171 83.5333 191.871 83.02C192.571 82.4833 193.131 82.005 193.551 81.585L193.726 81.41C193.726 81.3633 193.586 81.445 193.306 81.655L190.366 83.825C190.343 83.8483 190.308 83.86 190.261 83.86C190.238 83.86 190.25 83.8367 190.296 83.79C190.343 83.72 190.425 83.65 190.541 83.58C191.008 83.2533 191.486 82.8917 191.976 82.495C192.466 82.075 192.933 81.6783 193.376 81.305C193.936 80.8617 194.216 80.5933 194.216 80.5C193.68 80.5 192.991 80.7567 192.151 81.27C191.311 81.7833 190.46 82.425 189.596 83.195C188.756 83.965 188.021 84.7583 187.391 85.575ZM195.638 91C195.241 90.9533 194.926 90.7317 194.693 90.335C194.459 89.915 194.343 89.5183 194.343 89.145C194.343 88.8417 194.506 88.3633 194.833 87.71C195.183 87.0567 195.614 86.3217 196.128 85.505C196.664 84.665 197.213 83.8483 197.773 83.055C198.356 82.2383 198.869 81.515 199.313 80.885C199.779 80.255 200.106 79.8117 200.293 79.555C199.989 79.835 199.709 80.115 199.453 80.395C199.196 80.675 199.044 80.815 198.998 80.815C198.974 80.815 199.091 80.605 199.348 80.185C199.628 79.7417 200.164 78.9483 200.958 77.805C201.191 77.805 201.471 77.9333 201.798 78.19C202.124 78.4467 202.416 78.7383 202.673 79.065C202.929 79.3917 203.058 79.6717 203.058 79.905C202.801 80.325 202.393 80.8617 201.833 81.515C201.296 82.145 200.724 82.7983 200.118 83.475C199.534 84.1517 199.009 84.77 198.543 85.33C198.613 85.26 198.893 85.015 199.383 84.595C199.896 84.175 200.526 83.65 201.273 83.02C202.019 82.39 202.813 81.725 203.653 81.025C204.516 80.325 205.333 79.6717 206.103 79.065C206.873 78.435 207.526 77.9333 208.063 77.56C208.623 77.1633 208.973 76.965 209.113 76.965C209.253 76.965 209.451 77.105 209.708 77.385C209.988 77.6417 210.244 77.9333 210.478 78.26C210.711 78.5867 210.828 78.855 210.828 79.065C210.828 79.0883 210.653 79.2867 210.303 79.66C209.976 80.0333 209.556 80.5117 209.043 81.095C208.553 81.655 208.063 82.25 207.573 82.88C207.083 83.4867 206.663 84.0583 206.313 84.595C205.986 85.1317 205.834 85.5283 205.858 85.785C205.624 85.7383 205.426 85.5283 205.263 85.155C205.099 84.7583 205.018 84.315 205.018 83.825C205.018 83.545 205.099 83.2067 205.263 82.81C205.449 82.4133 205.648 82.0283 205.858 81.655C206.091 81.2817 206.289 80.955 206.453 80.675C206.639 80.395 206.733 80.2433 206.733 80.22C206.593 80.3833 206.394 80.6517 206.138 81.025C205.904 81.3983 205.671 81.7717 205.438 82.145C205.228 82.495 205.088 82.7517 205.018 82.915C205.088 82.635 205.286 82.18 205.613 81.55C205.939 80.92 206.371 80.29 206.908 79.66C206.651 79.8933 206.208 80.29 205.578 80.85C204.971 81.3867 204.271 82.0283 203.478 82.775C202.684 83.5217 201.856 84.3033 200.993 85.12C200.153 85.9133 199.348 86.695 198.578 87.465C197.808 88.235 197.154 88.935 196.618 89.565C196.104 90.1717 195.778 90.65 195.638 91Z" fill="white"/>
<defs>
<filter id="filter0_d_26_906" x="0" y="0" width="158" height="158" filterUnits="userSpaceOnUse" color-interpolation-filters="sRGB">
<feFlood flood-opacity="0" result="BackgroundImageFix"/>
<feColorMatrix in="SourceAlpha" type="matrix" values="0 0 0 0 0 0 0 0 0 0 0 0 0 0 0 0 0 0 127 0" result="hardAlpha"/>
<feMorphology radius="5" operator="dilate" in="SourceAlpha" result="effect1_dropShadow_26_906"/>
<feOffset/>
<feGaussianBlur stdDeviation="22"/>
<feComposite in2="hardAlpha" operator="out"/>
<feColorMatrix type="matrix" values="0 0 0 0 0 0 0 0 0 0.458824 0 0 0 0 1 0 0 0 0.57 0"/>
<feBlend mode="normal" in2="BackgroundImageFix" result="effect1_dropShadow_26_906"/>
<feBlend mode="normal" in="SourceGraphic" in2="effect1_dropShadow_26_906" result="shape"/>
</filter>
</defs>
</svg>
