<svg width="17" height="17" viewBox="0 0 17 17" fill="none" xmlns="http://www.w3.org/2000/svg">
<g opacity="0.78" clip-path="url(#clip0_29_957)">
<path d="M12.7074 12.7076C11.4966 13.6305 10.0222 14.1418 8.49992 14.1667C3.54159 14.1667 0.708252 8.50006 0.708252 8.50006C1.58934 6.85807 2.81139 5.42349 4.29242 4.29256M7.01242 3.00339C7.49999 2.88926 7.99917 2.83222 8.49992 2.83339C13.4583 2.83339 16.2916 8.50006 16.2916 8.50006C15.8616 9.30445 15.3488 10.0617 14.7616 10.7596M10.0016 10.0017C9.80704 10.2105 9.57244 10.378 9.31178 10.4941C9.05111 10.6102 8.76973 10.6727 8.4844 10.6777C8.19908 10.6828 7.91566 10.6303 7.65106 10.5234C7.38646 10.4165 7.1461 10.2575 6.94431 10.0557C6.74252 9.85388 6.58345 9.61352 6.47657 9.34892C6.3697 9.08432 6.31721 8.8009 6.32224 8.51558C6.32728 8.23025 6.38973 7.94886 6.50587 7.6882C6.62202 7.42754 6.78947 7.19293 6.99825 6.99839" stroke="#EBF4FF" stroke-width="2" stroke-linecap="round" stroke-linejoin="round"/>
<path d="M0.708252 0.708374L16.2916 16.2917" stroke="#EBF4FF" stroke-width="2" stroke-linecap="round" stroke-linejoin="round"/>
</g>
<defs>
<clipPath id="clip0_29_957">
<rect width="17" height="17" fill="white"/>
</clipPath>
</defs>
</svg>
